# xmcd
#
# Track frame offsets:
# 150
# 14336
# 32475
# 45243
# 59972
# 76342
# 89505
# 103545
# 115419
# 131157
# 146497
# 162532
# 177680
#
# Disc length: 2548 seconds
#
#
# Revision: 0
# Processed by: cddbd v1.5.1PL2 Copyright (c) Steve Scherf et al.
# Submitted via: FreeRIP 2.945 
#
DISCID=b709f20d
DTITLE=TED GREY and SILVANEY - MULHER VAMPIRA
DYEAR=2006
DGENRE=Country
TTITLE0=MULHER VAMPIRA
TTITLE1=APENAS UMA NOITE
TTITLE2=A MARCA DA ALIANÇA
TTITLE3=QUEM NAMOROU NAMOROU
TTITLE4=CORAÇÃO PEDE SOCORRO
TTITLE5=O TOMÉ TENDO TA BOM
TTITLE6=FIQUE DE UMA VEZ COMIGO
TTITLE7=PEGANDO SEM MANIVELA
TTITLE8=PEGA LEVE
TTITLE9=NUNCA MAIS
TTITLE10=O CABEÇUDO
TTITLE11=MULHER CASADA
TTITLE12=NOITE DE FOLIA
EXTD=
EXTT0=
EXTT1=
EXTT2=
EXTT3=
EXTT4=
EXTT5=
EXTT6=
EXTT7=
EXTT8=
EXTT9=
EXTT10=
EXTT11=
EXTT12=
PLAYORDER=
